<svg width="226" height="56" viewBox="0 0 226 56" fill="none" xmlns="http://www.w3.org/2000/svg">
<path d="M4.00241 19.044C3.14476 15.8432 5.04425 12.5531 8.24505 11.6955L28.3109 6.31884L46.1657 15.1912L51.9976 36.956C52.8552 40.1568 50.9558 43.4468 47.755 44.3045L19.044 51.9976C15.8432 52.8552 12.5531 50.9557 11.6955 47.7549L4.00241 19.044Z" stroke="#B1C909" stroke-width="4"/>
<path d="M17.6318 29.7919L37.8745 24.3679" stroke="#B1C909" stroke-width="4" stroke-linecap="round"/>
<path d="M19.3584 36.2327L39.6011 30.8087" stroke="#B1C909" stroke-width="4" stroke-linecap="round"/>
<path d="M26.6045 41.1943L35.8057 38.7288" stroke="#B1C909" stroke-width="4" stroke-linecap="round"/>
<path d="M96.224 16.716C98.8693 16.716 100.928 17.4947 102.4 19.052C103.872 20.588 104.608 22.8173 104.608 25.74V39.5H99.424V25.9C99.424 24.3213 99.008 23.1373 98.176 22.348C97.3653 21.5373 96.288 21.132 94.944 21.132C93.472 21.132 92.2987 21.5587 91.424 22.412C90.5493 23.244 90.112 24.5133 90.112 26.22V39.5H84.928V25.9C84.928 24.3213 84.544 23.1373 83.776 22.348C83.008 21.5373 81.9627 21.132 80.64 21.132C79.1893 21.132 78.0267 21.5587 77.152 22.412C76.2773 23.244 75.84 24.5133 75.84 26.22V39.5H70.656V17.1H75.68V19.852C76.3627 18.8493 77.2693 18.0813 78.4 17.548C79.5307 16.9933 80.832 16.716 82.304 16.716C83.84 16.716 85.184 17.004 86.336 17.58C87.488 18.1347 88.3733 18.9453 88.992 20.012C89.76 18.9453 90.7627 18.1347 92 17.58C93.2587 17.004 94.6667 16.716 96.224 16.716ZM126.711 22.284V36.62C126.711 39.7773 125.911 42.124 124.311 43.66C122.711 45.196 120.385 45.964 117.335 45.964C115.713 45.964 114.177 45.7613 112.727 45.356C111.297 44.9507 110.092 44.364 109.111 43.596L111.095 40.012C111.82 40.6093 112.705 41.0787 113.751 41.42C114.796 41.7613 115.852 41.932 116.919 41.932C118.583 41.932 119.799 41.548 120.567 40.78C121.335 40.012 121.719 38.8387 121.719 37.26V36.684C121.079 37.324 120.321 37.8147 119.447 38.156C118.572 38.4973 117.633 38.668 116.631 38.668C114.369 38.668 112.577 38.028 111.255 36.748C109.932 35.4467 109.271 33.5053 109.271 30.924V22.284H114.263V30.188C114.263 32.9827 115.425 34.38 117.751 34.38C118.945 34.38 119.905 33.996 120.631 33.228C121.356 32.4387 121.719 31.276 121.719 29.74V22.284H126.711ZM143.559 16.716C146.226 16.716 148.306 17.5587 149.799 19.244C151.293 20.908 152.039 23.2867 152.039 26.38V39.5H146.855V26.54C146.855 24.748 146.429 23.404 145.575 22.508C144.743 21.5907 143.581 21.132 142.087 21.132C140.509 21.132 139.239 21.6227 138.279 22.604C137.341 23.564 136.871 24.9933 136.871 26.892V39.5H131.687V17.1H136.711V19.82C137.479 18.796 138.439 18.028 139.591 17.516C140.743 16.9827 142.066 16.716 143.559 16.716ZM164.996 39.756C163.183 39.756 161.551 39.3827 160.1 38.636C158.671 37.868 157.551 36.812 156.74 35.468C155.929 34.124 155.524 32.5987 155.524 30.892C155.524 29.1853 155.929 27.66 156.74 26.316C157.551 24.972 158.671 23.9267 160.1 23.18C161.551 22.412 163.183 22.028 164.996 22.028C166.809 22.028 168.431 22.412 169.86 23.18C171.289 23.9267 172.409 24.972 173.22 26.316C174.031 27.66 174.436 29.1853 174.436 30.892C174.436 32.5987 174.031 34.124 173.22 35.468C172.409 36.812 171.289 37.868 169.86 38.636C168.431 39.3827 166.809 39.756 164.996 39.756ZM164.996 35.66C166.276 35.66 167.321 35.2333 168.132 34.38C168.964 33.5053 169.38 32.3427 169.38 30.892C169.38 29.4413 168.964 28.2893 168.132 27.436C167.321 26.5613 166.276 26.124 164.996 26.124C163.716 26.124 162.66 26.5613 161.828 27.436C160.996 28.2893 160.58 29.4413 160.58 30.892C160.58 32.3427 160.996 33.5053 161.828 34.38C162.66 35.2333 163.716 35.66 164.996 35.66ZM188.141 38.668C187.65 39.0307 187.042 39.308 186.317 39.5C185.613 39.6707 184.877 39.756 184.109 39.756C182.039 39.756 180.45 39.2333 179.341 38.188C178.231 37.1427 177.677 35.6067 177.677 33.58V18.476H182.669V22.668H186.925V26.508H182.669V33.516C182.669 34.2413 182.85 34.8067 183.213 35.212C183.575 35.596 184.098 35.788 184.781 35.788C185.549 35.788 186.231 35.5747 186.829 35.148L188.141 38.668ZM199.101 35.756C199.997 35.756 200.786 35.628 201.469 35.372C202.173 35.0947 202.824 34.668 203.421 34.092L206.077 36.972C204.456 38.828 202.088 39.756 198.973 39.756C197.032 39.756 195.314 39.3827 193.821 38.636C192.328 37.868 191.176 36.812 190.365 35.468C189.554 34.124 189.149 32.5987 189.149 30.892C189.149 29.2067 189.544 27.692 190.333 26.348C191.144 24.9827 192.242 23.9267 193.629 23.18C195.037 22.412 196.616 22.028 198.365 22.028C200.008 22.028 201.501 22.38 202.845 23.084C204.189 23.7667 205.256 24.7693 206.045 26.092C206.856 27.3933 207.261 28.94 207.261 30.732L194.525 33.196C194.888 34.0493 195.453 34.6893 196.221 35.116C197.01 35.5427 197.97 35.756 199.101 35.756ZM198.365 25.804C197.106 25.804 196.082 26.2093 195.293 27.02C194.504 27.8307 194.088 28.9507 194.045 30.38L202.429 28.748C202.194 27.852 201.714 27.1373 200.989 26.604C200.264 26.0707 199.389 25.804 198.365 25.804ZM216.409 39.756C214.979 39.756 213.582 39.5853 212.217 39.244C210.851 38.8813 209.763 38.4333 208.953 37.9L210.617 34.316C211.385 34.8067 212.313 35.212 213.401 35.532C214.489 35.8307 215.555 35.98 216.601 35.98C218.713 35.98 219.769 35.4573 219.769 34.412C219.769 33.9213 219.481 33.5693 218.905 33.356C218.329 33.1427 217.443 32.9613 216.249 32.812C214.841 32.5987 213.678 32.3533 212.761 32.076C211.843 31.7987 211.043 31.308 210.361 30.604C209.699 29.9 209.368 28.8973 209.368 27.596C209.368 26.508 209.678 25.548 210.297 24.716C210.937 23.8627 211.854 23.2013 213.049 22.732C214.265 22.2627 215.694 22.028 217.337 22.028C218.553 22.028 219.758 22.1667 220.953 22.444C222.169 22.7 223.171 23.0627 223.961 23.532L222.297 27.084C220.782 26.2307 219.129 25.804 217.337 25.804C216.27 25.804 215.47 25.9533 214.937 26.252C214.403 26.5507 214.137 26.9347 214.137 27.404C214.137 27.9373 214.425 28.3107 215.001 28.524C215.577 28.7373 216.494 28.94 217.753 29.132C219.161 29.3667 220.313 29.6227 221.209 29.9C222.105 30.156 222.883 30.636 223.545 31.34C224.206 32.044 224.537 33.0253 224.537 34.284C224.537 35.3507 224.217 36.3 223.577 37.132C222.937 37.964 221.998 38.6147 220.761 39.084C219.545 39.532 218.094 39.756 216.409 39.756Z" fill="#B1C909"/>
</svg>
