<svg width="480" height="72" viewBox="0 0 480 72" fill="none" xmlns="http://www.w3.org/2000/svg">
<mask id="path-1-inside-1_105_335" fill="white">
<path d="M0 0H480V72H0V0Z"/>
</mask>
<path d="M480 71H0V73H480V71Z" fill="#97AB0D" mask="url(#path-1-inside-1_105_335)"/>
<rect width="440" height="72" fill="#B1C909"/>
<path d="M39.184 36.24C41.176 36.864 42.4 38.352 42.4 40.296C42.4 43.416 39.04 45.24 35.2 45.24C33.016 45.24 30.664 44.64 28.696 43.368L29.704 41.088C31.216 42.12 33.112 42.624 34.816 42.624C37.216 42.624 39.232 41.64 39.232 39.84C39.232 38.328 37.912 37.584 35.8 37.584H31.888V35.136H35.56C37.432 35.136 38.536 34.32 38.536 33C38.536 31.392 36.856 30.528 34.744 30.528C33.304 30.528 31.624 30.936 30.16 31.8L29.176 29.28C30.952 28.32 32.944 27.888 34.816 27.888C38.512 27.888 41.704 29.64 41.704 32.616C41.704 34.296 40.744 35.592 39.184 36.24ZM50.3779 32.04C54.0739 32.04 56.2099 33.792 56.2099 37.488V45H53.3779V43.44C52.6579 44.544 51.2659 45.168 49.3459 45.168C46.4179 45.168 44.5699 43.56 44.5699 41.328C44.5699 39.192 46.0099 37.512 49.8979 37.512H53.2099V37.32C53.2099 35.568 52.1539 34.536 50.0179 34.536C48.5779 34.536 47.0899 35.016 46.1299 35.808L44.9539 33.624C46.3219 32.568 48.3139 32.04 50.3779 32.04ZM49.9699 42.984C51.4339 42.984 52.7059 42.312 53.2099 40.992V39.504H50.1139C48.0739 39.504 47.5219 40.272 47.5219 41.208C47.5219 42.288 48.4339 42.984 49.9699 42.984ZM69.7623 32.184V34.728H62.9223V45H59.9223V32.184H69.7623ZM77.0952 45.168C73.1592 45.168 70.2792 42.432 70.2792 38.592C70.2792 34.752 73.1592 32.04 77.0952 32.04C81.0792 32.04 83.9352 34.752 83.9352 38.592C83.9352 42.432 81.0792 45.168 77.0952 45.168ZM77.0952 42.6C79.2792 42.6 80.9112 41.04 80.9112 38.592C80.9112 36.144 79.2792 34.584 77.0952 34.584C74.9352 34.584 73.3032 36.144 73.3032 38.592C73.3032 41.04 74.9352 42.6 77.0952 42.6ZM88.0062 32.184H98.3742V45H95.3742V34.728H90.5742L90.4542 37.272C90.2382 41.832 89.5662 45.24 86.5422 45.24C86.0622 45.24 85.5102 45.144 84.8862 44.976L85.0302 42.456C85.2462 42.504 85.4382 42.528 85.6062 42.528C87.5742 42.528 87.6462 39.792 87.7902 37.128L88.0062 32.184ZM108.126 45.168C104.19 45.168 101.31 42.432 101.31 38.592C101.31 34.752 104.19 32.04 108.126 32.04C112.11 32.04 114.966 34.752 114.966 38.592C114.966 42.432 112.11 45.168 108.126 45.168ZM108.126 42.6C110.31 42.6 111.942 41.04 111.942 38.592C111.942 36.144 110.31 34.584 108.126 34.584C105.966 34.584 104.334 36.144 104.334 38.592C104.334 41.04 105.966 42.6 108.126 42.6ZM127.218 38.328C128.802 38.808 129.594 39.84 129.594 41.4C129.594 43.656 127.914 45 124.458 45H117.93V32.184H124.194C127.314 32.184 129.186 33.384 129.186 35.496C129.186 36.816 128.442 37.8 127.218 38.328ZM120.786 34.368V37.536H123.93C125.466 37.536 126.258 36.984 126.258 35.928C126.258 34.872 125.466 34.368 123.93 34.368H120.786ZM124.218 42.816C125.826 42.816 126.69 42.312 126.69 41.208C126.69 40.08 125.946 39.528 124.314 39.528H120.786V42.816H124.218ZM138.501 45.168C134.565 45.168 131.685 42.432 131.685 38.592C131.685 34.752 134.565 32.04 138.501 32.04C142.485 32.04 145.341 34.752 145.341 38.592C145.341 42.432 142.485 45.168 138.501 45.168ZM138.501 42.6C140.685 42.6 142.317 41.04 142.317 38.592C142.317 36.144 140.685 34.584 138.501 34.584C136.341 34.584 134.709 36.144 134.709 38.592C134.709 41.04 136.341 42.6 138.501 42.6ZM157.497 45L153.633 39.864H151.305V45H148.305V32.184H151.305V37.368H153.705L157.497 32.184H160.713L156.057 38.352L161.025 45H157.497Z" fill="white"/>
<path d="M440 0L480 40H440V0Z" fill="#B1C909"/>
<path d="M480 40L452 40C445.373 40 440 34.6274 440 28L440 -3.49691e-06L480 40Z" fill="#A5BB0C"/>
<rect x="440" y="40" width="40" height="32" fill="#B1C909"/>
</svg>
